<?xml version="1.0"?>
<svg xmlns="http://www.w3.org/2000/svg" xmlns:lc="https://librecad.org" xmlns:xlink="http://www.w3.org/1999/xlink" width="600mm" height="300mm" viewBox="0 0 600 300">
    <g lc:layername="0" lc:is_locked="false" lc:is_construction="false" fill="none" stroke="black" stroke-width="1"/>
    <g lc:layername="Coupe" lc:is_locked="false" lc:is_construction="false" fill="none" stroke="black" stroke-width="1">
        <path d="M600,300 L600,70 L0,0 L0,300 L600,300 Z "/>
        <line x1="60" y1="120" x2="60" y2="230"/>
        <path d="M60,230 A10,10 0 0,0 70,240 "/>
        <line x1="430" y1="270" x2="430" y2="280"/>
        <line x1="430" y1="280" x2="440" y2="280"/>
        <line x1="440" y1="280" x2="440" y2="270"/>
        <line x1="440" y1="270" x2="430" y2="270"/>
        <line x1="90" y1="270" x2="90" y2="280"/>
        <line x1="90" y1="280" x2="100" y2="280"/>
        <line x1="100" y1="280" x2="100" y2="270"/>
        <line x1="100" y1="270" x2="90" y2="270"/>
        <line x1="60" y1="130" x2="60" y2="140"/>
        <line x1="60" y1="200" x2="60" y2="210"/>
        <line x1="60" y1="170" x2="60" y2="180"/>
        <path d="M70,38.37014329 A8.48395545,8.48395545 0 0,0 60,45 "/>
        <line x1="60" y1="45" x2="60" y2="230"/>
        <path d="M490,96 A10,10 0 0,0 480,86 "/>
        <line x1="480" y1="86" x2="70" y2="38.37014329"/>
        <line x1="490" y1="230" x2="490" y2="220"/>
        <path d="M480,240 A10,10 0 0,0 490,230 "/>
        <line x1="70" y1="240" x2="480" y2="240"/>
        <line x1="490" y1="96" x2="490" y2="230"/>
        <line x1="60" y1="270" x2="60" y2="280"/>
        <line x1="60" y1="280" x2="50" y2="280"/>
        <line x1="50" y1="280" x2="50" y2="270"/>
        <line x1="50" y1="270" x2="60" y2="270"/>
        <line x1="130" y1="270" x2="140" y2="270"/>
        <line x1="140" y1="270" x2="140" y2="280"/>
        <line x1="140" y1="280" x2="130" y2="280"/>
        <line x1="130" y1="280" x2="130" y2="270"/>
        <line x1="400" y1="270" x2="400" y2="280"/>
        <line x1="400" y1="280" x2="390" y2="280"/>
        <line x1="390" y1="280" x2="390" y2="270"/>
        <line x1="390" y1="270" x2="400" y2="270"/>
        <line x1="470" y1="270" x2="480" y2="270"/>
        <line x1="480" y1="270" x2="480" y2="280"/>
        <line x1="480" y1="280" x2="470" y2="280"/>
        <line x1="470" y1="280" x2="470" y2="270"/>
        <line x1="270" y1="140" x2="280" y2="140"/>
        <line x1="280" y1="130" x2="270" y2="130"/>
        <line x1="480" y1="110" x2="480" y2="130"/>
        <line x1="480" y1="130" x2="490" y2="130"/>
        <line x1="490" y1="140" x2="480" y2="140"/>
        <line x1="480" y1="170" x2="490" y2="170"/>
        <line x1="490" y1="180" x2="480" y2="180"/>
        <line x1="270" y1="130" x2="280" y2="130"/>
        <line x1="280" y1="180" x2="270" y2="180"/>
        <line x1="270" y1="170" x2="280" y2="170"/>
        <line x1="480" y1="210" x2="490" y2="210"/>
        <line x1="490" y1="220" x2="480" y2="220"/>
        <line x1="480" y1="210" x2="480" y2="180"/>
        <line x1="480" y1="140" x2="480" y2="170"/>
        <line x1="480" y1="220" x2="480" y2="240"/>
        <line x1="280" y1="110" x2="280" y2="130"/>
        <line x1="280" y1="140" x2="280" y2="170"/>
        <line x1="280" y1="210" x2="270" y2="210"/>
        <line x1="280" y1="180" x2="280" y2="210"/>
        <line x1="270" y1="220" x2="280" y2="220"/>
        <line x1="280" y1="220" x2="280" y2="240"/>
        <circle cx="170" cy="165" r="17.5"/>
        <line x1="270" y1="220" x2="280" y2="220"/>
        <line x1="60" y1="220" x2="70" y2="220"/>
        <line x1="60" y1="230" x2="280" y2="230"/>
        <line x1="60" y1="70" x2="60" y2="80"/>
        <line x1="280" y1="110" x2="480" y2="110"/>
        <circle cx="265" cy="275" r="5"/>
        <circle cx="520" cy="275" r="5"/>
        <line x1="10" y1="100" x2="20" y2="100"/>
        <line x1="20" y1="100" x2="20" y2="90"/>
        <line x1="20" y1="90" x2="10" y2="90"/>
        <line x1="10" y1="90" x2="10" y2="100"/>
        <line x1="10" y1="60" x2="10" y2="50"/>
        <line x1="10" y1="50" x2="20" y2="50"/>
        <line x1="20" y1="50" x2="20" y2="60"/>
        <line x1="20" y1="60" x2="10" y2="60"/>
        <line x1="10" y1="130" x2="20" y2="130"/>
        <line x1="20" y1="130" x2="20" y2="140"/>
        <line x1="20" y1="140" x2="10" y2="140"/>
        <line x1="10" y1="140" x2="10" y2="130"/>
        <circle cx="15" cy="200" r="5"/>
        <circle cx="540" cy="250" r="7.07106781"/>
        <path d="M545,145 L545,135 L535,135 L535,145 L545,145 Z "/>
        <path d="M553.30901989,145.72694505 L563.15709742,147.46342682 L564.8935792,137.61534929 L555.04550167,135.87886752 L553.30901989,145.72694505 "/>
        <path d="M580.61057815,153.04237553 L584.03077959,143.64544933 L574.63385338,140.22524789 L571.21365195,149.6221741 L580.61057815,153.04237553 Z "/>
        <line x1="270" y1="110" x2="280" y2="110"/>
        <line x1="280" y1="110" x2="280" y2="100"/>
        <line x1="280" y1="100" x2="60" y2="100"/>
        <line x1="60" y1="110" x2="70" y2="110"/>
        <line x1="270" y1="110" x2="270" y2="220"/>
        <line x1="70" y1="220" x2="70" y2="110"/>
        <circle cx="580" cy="110" r="5"/>
        <circle cx="170" cy="165" r="16"/>
    </g>
</svg>
