<?xml version="1.0"?>
<svg xmlns="http://www.w3.org/2000/svg" xmlns:lc="https://librecad.org" xmlns:xlink="http://www.w3.org/1999/xlink" width="600mm" height="300mm" viewBox="0 0 600 300">
    <g lc:layername="0" lc:is_locked="true" lc:is_construction="false" fill="none" stroke="black" stroke-width="1"/>
    <g lc:layername="Coupe" lc:is_locked="false" lc:is_construction="false" fill="none" stroke="black" stroke-width="1">
        <line x1="0" y1="0" x2="600" y2="0"/>
        <line x1="600" y1="0" x2="600" y2="230"/>
        <line x1="600" y1="230" x2="0" y2="300"/>
        <line x1="0" y1="300" x2="0" y2="0"/>
        <line x1="60" y1="70" x2="60" y2="80"/>
        <line x1="60" y1="80" x2="70" y2="80"/>
        <line x1="60" y1="180" x2="60" y2="170"/>
        <line x1="60" y1="170" x2="70" y2="170"/>
        <line x1="70" y1="120" x2="60" y2="120"/>
        <line x1="60" y1="120" x2="60" y2="130"/>
        <line x1="60" y1="130" x2="70" y2="130"/>
        <line x1="90" y1="20" x2="90" y2="30"/>
        <line x1="90" y1="30" x2="100" y2="30"/>
        <line x1="100" y1="30" x2="100" y2="20"/>
        <line x1="100" y1="20" x2="90" y2="20"/>
        <line x1="280" y1="80" x2="270" y2="80"/>
        <line x1="270" y1="120" x2="280" y2="120"/>
        <line x1="280" y1="130" x2="270" y2="130"/>
        <line x1="270" y1="170" x2="280" y2="170"/>
        <line x1="280" y1="70" x2="480" y2="70"/>
        <line x1="280" y1="90" x2="270" y2="90"/>
        <line x1="280" y1="140" x2="270" y2="140"/>
        <line x1="490" y1="130" x2="480" y2="130"/>
        <line x1="480" y1="140" x2="490" y2="140"/>
        <path d="M490,70 A10,10 0 0,0 480,60 "/>
        <line x1="70" y1="60" x2="480" y2="60"/>
        <path d="M70,60 A10,10 0 0,0 60,70 "/>
        <line x1="480" y1="200" x2="70" y2="200"/>
        <line x1="430" y1="20" x2="430" y2="30"/>
        <line x1="430" y1="30" x2="440" y2="30"/>
        <line x1="440" y1="30" x2="440" y2="20"/>
        <line x1="440" y1="20" x2="430" y2="20"/>
        <path d="M60,255 A8.48395545,8.48395545 0 0,0 70,261.62985671 "/>
        <line x1="60" y1="255" x2="60" y2="70"/>
        <path d="M480,214 A10,10 0 0,0 490,204 "/>
        <line x1="490" y1="70" x2="490" y2="204"/>
        <line x1="480" y1="214" x2="70" y2="261.62985671"/>
        <line x1="400" y1="20" x2="400" y2="30"/>
        <line x1="400" y1="30" x2="390" y2="30"/>
        <line x1="390" y1="30" x2="390" y2="20"/>
        <line x1="390" y1="20" x2="400" y2="20"/>
        <line x1="470" y1="20" x2="480" y2="20"/>
        <line x1="480" y1="20" x2="480" y2="30"/>
        <line x1="480" y1="30" x2="470" y2="30"/>
        <line x1="470" y1="30" x2="470" y2="20"/>
        <line x1="60" y1="20" x2="60" y2="30"/>
        <line x1="60" y1="30" x2="50" y2="30"/>
        <line x1="50" y1="30" x2="50" y2="20"/>
        <line x1="50" y1="20" x2="60" y2="20"/>
        <line x1="130" y1="20" x2="140" y2="20"/>
        <line x1="140" y1="20" x2="140" y2="30"/>
        <line x1="140" y1="30" x2="130" y2="30"/>
        <line x1="130" y1="30" x2="130" y2="20"/>
        <line x1="70" y1="90" x2="60" y2="90"/>
        <line x1="70" y1="90" x2="70" y2="120"/>
        <line x1="70" y1="80" x2="70" y2="60"/>
        <line x1="70" y1="160" x2="60" y2="160"/>
        <line x1="70" y1="200" x2="70" y2="170"/>
        <line x1="70" y1="160" x2="70" y2="130"/>
        <line x1="280" y1="100" x2="270" y2="100"/>
        <line x1="270" y1="60" x2="270" y2="80"/>
        <line x1="280" y1="70" x2="280" y2="90"/>
        <line x1="280" y1="100" x2="280" y2="130"/>
        <line x1="280" y1="160" x2="270" y2="160"/>
        <line x1="280" y1="140" x2="280" y2="170"/>
        <line x1="270" y1="170" x2="270" y2="190"/>
        <line x1="270" y1="90" x2="270" y2="120"/>
        <line x1="270" y1="130" x2="270" y2="160"/>
        <line x1="270" y1="190" x2="70" y2="190"/>
        <line x1="280" y1="200" x2="280" y2="180"/>
        <line x1="280" y1="180" x2="270" y2="180"/>
        <line x1="480" y1="90" x2="490" y2="90"/>
        <line x1="490" y1="100" x2="480" y2="100"/>
        <line x1="480" y1="170" x2="490" y2="170"/>
        <line x1="490" y1="180" x2="480" y2="180"/>
        <line x1="480" y1="180" x2="480" y2="200"/>
        <line x1="480" y1="140" x2="480" y2="170"/>
        <line x1="480" y1="70" x2="480" y2="90"/>
        <line x1="480" y1="100" x2="480" y2="130"/>
        <line x1="511.33974648" y1="25" x2="515.6698735" y2="17.5"/>
        <line x1="515.6698735" y1="17.5" x2="524.3301265" y2="17.5"/>
        <line x1="528.66025352" y1="25" x2="524.3301265" y2="17.5"/>
        <line x1="528.66025352" y1="25" x2="524.3301265" y2="32.5"/>
        <line x1="511.33974648" y1="25" x2="515.6698735" y2="32.5"/>
        <line x1="515.6698735" y1="32.5" x2="524.3301265" y2="32.5"/>
        <line x1="256.33974648" y1="25" x2="260.6698735" y2="17.5"/>
        <line x1="260.6698735" y1="17.5" x2="269.3301265" y2="17.5"/>
        <line x1="273.66025352" y1="25" x2="269.3301265" y2="17.5"/>
        <line x1="273.66025352" y1="25" x2="269.3301265" y2="32.5"/>
        <line x1="256.33974648" y1="25" x2="260.6698735" y2="32.5"/>
        <line x1="260.6698735" y1="32.5" x2="269.3301265" y2="32.5"/>
        <circle cx="540" cy="50" r="7.07106781"/>
        <path d="M545,155 L545,165 L535,165 L535,155 L545,155 Z "/>
        <path d="M563.15709742,152.53657318 L564.8935792,162.38465071 L555.04550167,164.12113248 L553.30901989,154.27305495 L563.15709742,152.53657318 Z "/>
        <path d="M580.61057815,146.95762447 L584.03077959,156.35455067 L574.63385338,159.77475211 L571.21365195,150.3778259 L580.61057815,146.95762447 Z "/>
        <line x1="571.33974648" y1="190" x2="575.6698735" y2="182.5"/>
        <line x1="575.6698735" y1="182.5" x2="584.3301265" y2="182.5"/>
        <line x1="588.66025352" y1="190" x2="584.3301265" y2="182.5"/>
        <line x1="588.66025352" y1="190" x2="584.3301265" y2="197.5"/>
        <line x1="571.33974648" y1="190" x2="575.6698735" y2="197.5"/>
        <line x1="575.6698735" y1="197.5" x2="584.3301265" y2="197.5"/>
        <line x1="10" y1="200" x2="10" y2="210"/>
        <line x1="10" y1="210" x2="20" y2="210"/>
        <line x1="20" y1="210" x2="20" y2="200"/>
        <line x1="20" y1="200" x2="10" y2="200"/>
        <line x1="10" y1="160" x2="10" y2="170"/>
        <line x1="10" y1="170" x2="20" y2="170"/>
        <line x1="20" y1="170" x2="20" y2="160"/>
        <line x1="20" y1="160" x2="10" y2="160"/>
        <line x1="10" y1="240" x2="20" y2="240"/>
        <line x1="20" y1="240" x2="20" y2="250"/>
        <line x1="20" y1="250" x2="10" y2="250"/>
        <line x1="10" y1="250" x2="10" y2="240"/>
        <line x1="6.33974648" y1="100" x2="10.6698735" y2="92.5"/>
        <line x1="10.6698735" y1="92.5" x2="19.3301265" y2="92.5"/>
        <line x1="23.66025352" y1="100" x2="19.3301265" y2="92.5"/>
        <line x1="23.66025352" y1="100" x2="19.3301265" y2="107.5"/>
        <line x1="6.33974648" y1="100" x2="10.6698735" y2="107.5"/>
        <line x1="10.6698735" y1="107.5" x2="19.3301265" y2="107.5"/>
    </g>
</svg>
