999
dxfrw 0.6.3
  0
SECTION
  2
HEADER
  9
$ACADVER
  1
AC1021
  9
$DWGCODEPAGE
  3
ANSI_1252
  9
$INSBASE
 10
0
 20
0
 30
0
  9
$EXTMIN
 10
-310
 20
-630
 30
0
  9
$EXTMAX
 10
910
 20
300
 30
0
  9
$LIMMIN
 10
0
 20
0
  9
$LIMMAX
 10
420
 20
297
  9
$ORTHOMODE
 70
    0
  9
$REGENMODE
 70
    1
  9
$FILLMODE
 70
    1
  9
$QTEXTMODE
 70
    0
  9
$MIRRTEXT
 70
    0
  9
$LTSCALE
 40
1
  9
$ATTMODE
 70
    0
  9
$TEXTSIZE
 40
2.5
  9
$TRACEWID
 40
15.68
  9
$TEXTSTYLE
  7
STANDARD
  9
$CLAYER
  8
Coupe
  9
$CELTYPE
  6
BYLAYER
  9
$CECOLOR
 62
  256
  9
$CELTSCALE
 40
1
  9
$DISPSILH
 70
    0
  9
$DIMSCALE
 40
1
  9
$DIMASZ
 40
5
  9
$DIMEXO
 40
0.625
  9
$DIMDLI
 40
3.75
  9
$DIMRND
 40
0
  9
$DIMDLE
 40
0
  9
$DIMEXE
 40
1.25
  9
$DIMTP
 40
0
  9
$DIMTM
 40
0
  9
$DIMTXT
 40
5
  9
$DIMCEN
 40
2.5
  9
$DIMTSZ
 40
0
  9
$DIMTOL
 70
    0
  9
$DIMLIM
 70
    0
  9
$DIMTIH
 70
    0
  9
$DIMTOH
 70
    0
  9
$DIMSE1
 70
    0
  9
$DIMSE2
 70
    0
  9
$DIMTAD
 70
    1
  9
$DIMZIN
 70
    8
  9
$DIMBLK
  1

  9
$DIMASO
 70
    1
  9
$DIMSHO
 70
    1
  9
$DIMPOST
  1

  9
$DIMAPOST
  1

  9
$DIMALT
 70
    0
  9
$DIMALTD
 70
    3
  9
$DIMALTF
 40
0.03937
  9
$DIMLFAC
 40
1
  9
$DIMTOFL
 70
    1
  9
$DIMTVP
 40
0
  9
$DIMTIX
 70
    0
  9
$DIMSOXD
 70
    0
  9
$DIMSAH
 70
    0
  9
$DIMBLK1
  1

  9
$DIMBLK2
  1

  9
$DIMSTYLE
  2
STANDARD
  9
$DIMCLRD
 70
    0
  9
$DIMCLRE
 70
    0
  9
$DIMCLRT
 70
    0
  9
$DIMTFAC
 40
1
  9
$DIMGAP
 40
0.625
  9
$DIMJUST
 70
    0
  9
$DIMSD1
 70
    0
  9
$DIMSD2
 70
    0
  9
$DIMTOLJ
 70
    0
  9
$DIMTZIN
 70
    8
  9
$DIMALTZ
 70
    0
  9
$DIMALTTZ
 70
    0
  9
$DIMUPT
 70
    0
  9
$DIMDEC
 70
    2
  9
$DIMTDEC
 70
    2
  9
$DIMALTU
 70
    2
  9
$DIMALTTD
 70
    3
  9
$DIMTXSTY
  7
standard
  9
$DIMAUNIT
 70
    0
  9
$DIMADEC
 70
    0
  9
$DIMALTRND
 40
0
  9
$DIMAZIN
 70
    0
  9
$DIMDSEP
 70
    0
  9
$DIMATFIT
 70
    3
  9
$DIMFRAC
 70
    0
  9
$DIMLDRBLK
  1
STANDARD
  9
$DIMLUNIT
 70
    2
  9
$DIMLWD
 70
   -2
  9
$DIMLWE
 70
   -2
  9
$DIMTMOVE
 70
    0
  9
$DIMFXL
 40
1
  9
$DIMFXLON
 70
    0
  9
$DIMJOGANG
 40
0.7854
  9
$DIMTFILL
 70
    0
  9
$DIMTFILLCLR
 70
    0
  9
$DIMARCSYM
 70
    0
  9
$DIMLTYPE
  6

  9
$DIMLTEX1
  6

  9
$DIMLTEX2
  6

  9
$LUNITS
 70
    2
  9
$LUPREC
 70
    4
  9
$SKETCHINC
 40
1
  9
$FILLETRAD
 40
0
  9
$AUNITS
 70
    0
  9
$AUPREC
 70
    2
  9
$MENU
  1
.
  9
$ELEVATION
 40
0
  9
$PELEVATION
 40
0
  9
$THICKNESS
 40
0
  9
$LIMCHECK
 70
    0
  9
$CHAMFERA
 40
0
  9
$CHAMFERB
 40
0
  9
$CHAMFERC
 40
0
  9
$CHAMFERD
 40
0
  9
$SKPOLY
 70
    0
  9
$USRTIMER
 70
    1
  9
$ANGBASE
 50
0
  9
$ANGDIR
 70
    0
  9
$PDMODE
 70
   34
  9
$PDSIZE
 40
0
  9
$PLINEWID
 40
0
  9
$SPLFRAME
 70
    0
  9
$SPLINETYPE
 70
    2
  9
$SPLINESEGS
 70
    8
  9
$HANDSEED
  5
20000
  9
$SURFTAB1
 70
    6
  9
$SURFTAB2
 70
    6
  9
$SURFTYPE
 70
    6
  9
$SURFU
 70
    6
  9
$SURFV
 70
    6
  9
$UCSBASE
  2

  9
$UCSNAME
  2

  9
$UCSORG
 10
0
 20
0
 30
0
  9
$UCSXDIR
 10
1
 20
0
 30
0
  9
$UCSYDIR
 10
0
 20
1
 30
0
  9
$UCSORTHOREF
  2

  9
$UCSORTHOVIEW
 70
    0
  9
$UCSORGTOP
 10
0
 20
0
 30
0
  9
$UCSORGBOTTOM
 10
0
 20
0
 30
0
  9
$UCSORGLEFT
 10
0
 20
0
 30
0
  9
$UCSORGRIGHT
 10
0
 20
0
 30
0
  9
$UCSORGFRONT
 10
0
 20
0
 30
0
  9
$UCSORGBACK
 10
0
 20
0
 30
0
  9
$PUCSBASE
  2

  9
$PUCSNAME
  2

  9
$PUCSORG
 10
0
 20
0
 30
0
  9
$PUCSXDIR
 10
1
 20
0
 30
0
  9
$PUCSYDIR
 10
0
 20
1
 30
0
  9
$PUCSORTHOREF
  2

  9
$PUCSORTHOVIEW
 70
    0
  9
$PUCSORGTOP
 10
0
 20
0
 30
0
  9
$PUCSORGBOTTOM
 10
0
 20
0
 30
0
  9
$PUCSORGLEFT
 10
0
 20
0
 30
0
  9
$PUCSORGRIGHT
 10
0
 20
0
 30
0
  9
$PUCSORGFRONT
 10
0
 20
0
 30
0
  9
$PUCSORGBACK
 10
0
 20
0
 30
0
  9
$USERI1
 70
    0
  9
$USERI2
 70
    0
  9
$USERI3
 70
    0
  9
$USERI4
 70
    0
  9
$USERI5
 70
    0
  9
$USERR1
 40
0
  9
$USERR2
 40
0
  9
$USERR3
 40
0
  9
$USERR4
 40
0
  9
$USERR5
 40
0
  9
$WORLDVIEW
 70
    1
  9
$SHADEDGE
 70
    3
  9
$SHADEDIF
 70
   70
  9
$TILEMODE
 70
    1
  9
$MAXACTVP
 70
   64
  9
$PINSBASE
 10
0
 20
0
 30
0
  9
$PLIMCHECK
 70
    0
  9
$PEXTMIN
 10
0
 20
0
 30
0
  9
$PEXTMAX
 10
0
 20
0
 30
0
  9
$GRIDMODE
 70
    1
  9
$SNAPSTYLE
 70
    0
  9
$GRIDUNIT
 10
0
 20
0
  9
$PLIMMIN
 10
0
 20
0
  9
$PLIMMAX
 10
210
 20
297
  9
$UNITMODE
 70
    0
  9
$VISRETAIN
 70
    1
  9
$PLINEGEN
 70
    0
  9
$PSLTSCALE
 70
    1
  9
$TREEDEPTH
 70
 3020
  9
$CMLSTYLE
  2
Standard
  9
$CMLJUST
 70
    0
  9
$CMLSCALE
 40
20
  9
$PROXYGRAPHICS
 70
    1
  9
$MEASUREMENT
 70
    1
  9
$CELWEIGHT
370
   -1
  9
$ENDCAPS
280
    0
  9
$JOINSTYLE
280
    0
  9
$LWDISPLAY
290
    0
  9
$INSUNITS
 70
    0
  9
$HYPERLINKBASE
  1

  9
$STYLESHEET
  1

  9
$XEDIT
290
    1
  9
$CEPSNTYPE
380
    0
  9
$PSTYLEMODE
290
    1
  9
$EXTNAMES
290
    1
  9
$PSVPSCALE
 40
1
  9
$OLESTARTUP
290
    0
  9
$SORTENTS
280
  127
  9
$INDEXCTL
280
    0
  9
$HIDETEXT
280
    1
  9
$XCLIPFRAME
290
    0
  9
$HALOGAP
280
    0
  9
$OBSCOLOR
 70
  257
  9
$OBSLTYPE
280
    0
  9
$INTERSECTIONDISPLAY
280
    0
  9
$INTERSECTIONCOLOR
 70
  257
  9
$DIMASSOC
280
    1
  9
$PROJECTNAME
  1

  9
$CAMERADISPLAY
290
    0
  9
$LENSLENGTH
 40
50
  9
$CAMERAHEIGHT
 40
0
  9
$STEPSPERSEC
 40
2
  9
$STEPSIZE
 40
50
  9
$3DDWFPREC
 40
2
  9
$PSOLWIDTH
 40
5
  9
$PSOLHEIGHT
 40
80
  9
$LOFTANG1
 40
1.570796326794897
  9
$LOFTANG2
 40
1.570796326794897
  9
$LOFTMAG1
 40
0
  9
$LOFTMAG2
 40
0
  9
$LOFTPARAM
 70
    7
  9
$LOFTNORMALS
280
    1
  9
$LATITUDE
 40
1
  9
$LONGITUDE
 40
1
  9
$NORTHDIRECTION
 40
0
  9
$TIMEZONE
 70
-8000
  9
$LIGHTGLYPHDISPLAY
280
    1
  9
$TILEMODELIGHTSYNCH
280
    1
  9
$SOLIDHIST
280
    1
  9
$SHOWHIST
280
    1
  9
$DWFFRAME
280
    2
  9
$DGNFRAME
280
    0
  9
$REALWORLDSCALE
290
    1
  9
$INTERFERECOLOR
 62
    1
  9
$CSHADOW
280
    0
  9
$SHADOWPLANELOCATION
 40
0
  0
ENDSEC
  0
SECTION
  2
CLASSES
  0
ENDSEC
  0
SECTION
  2
TABLES
  0
TABLE
  2
VPORT
  5
8
330
0
100
AcDbSymbolTable
 70
    1
  0
VPORT
  5
31
330
2
100
AcDbSymbolTableRecord
100
AcDbViewportTableRecord
  2
*ACTIVE
 70
    0
 10
0
 20
0
 11
1
 21
1
 12
714.794885334575
 22
210.5304159627408
 13
0
 23
0
 14
10
 24
10
 15
10
 25
10
 16
0
 26
0
 36
1
 17
0
 27
0
 37
0
 40
1633.816880764743
 41
1.442901234567901
 42
50
 43
0
 44
0
 50
0
 51
0
 71
    0
 72
  100
 73
    1
 74
    3
 75
    0
 76
    1
 77
    0
 78
    0
281
    0
 65
    1
110
0
120
0
130
0
111
1
121
0
131
0
112
0
122
1
132
0
 79
    0
146
0
348
10020
 60
    7
 61
    5
292
1
282
    1
141
0
142
0
 63
  250
421
3358443
  0
ENDTAB
  0
TABLE
  2
LTYPE
  5
5
330
0
100
AcDbSymbolTable
 70
    4
  0
LTYPE
  5
14
330
5
100
AcDbSymbolTableRecord
100
AcDbLinetypeTableRecord
  2
ByBlock
 70
    0
  3

 72
   65
 73
    0
 40
0
  0
LTYPE
  5
15
330
5
100
AcDbSymbolTableRecord
100
AcDbLinetypeTableRecord
  2
ByLayer
 70
    0
  3

 72
   65
 73
    0
 40
0
  0
LTYPE
  5
16
330
5
100
AcDbSymbolTableRecord
100
AcDbLinetypeTableRecord
  2
Continuous
 70
    0
  3
Solid line
 72
   65
 73
    0
 40
0
  0
LTYPE
  5
32
330
5
100
AcDbSymbolTableRecord
100
AcDbLinetypeTableRecord
  2
DOT
 70
    0
  3
Dot . . . . . . . . . . . . . . . . . . . . . .
 72
   65
 73
    2
 40
6.35
 49
0
 74
    0
 49
-6.35
 74
    0
  0
LTYPE
  5
33
330
5
100
AcDbSymbolTableRecord
100
AcDbLinetypeTableRecord
  2
DOTTINY
 70
    0
  3
Dot (.15x) .....................................
 72
   65
 73
    2
 40
0.9525
 49
0
 74
    0
 49
-0.9525
 74
    0
  0
LTYPE
  5
34
330
5
100
AcDbSymbolTableRecord
100
AcDbLinetypeTableRecord
  2
DOT2
 70
    0
  3
Dot (.5x) .....................................
 72
   65
 73
    2
 40
3.175
 49
0
 74
    0
 49
-3.175
 74
    0
  0
LTYPE
  5
35
330
5
100
AcDbSymbolTableRecord
100
AcDbLinetypeTableRecord
  2
DOTX2
 70
    0
  3
Dot (2x) .  .  .  .  .  .  .  .  .  .  .  .  .
 72
   65
 73
    2
 40
12.7
 49
0
 74
    0
 49
-12.7
 74
    0
  0
LTYPE
  5
36
330
5
100
AcDbSymbolTableRecord
100
AcDbLinetypeTableRecord
  2
DASHED
 70
    0
  3
Dashed _ _ _ _ _ _ _ _ _ _ _ _ _ _ _ _ _
 72
   65
 73
    2
 40
19.05
 49
12.7
 74
    0
 49
-6.35
 74
    0
  0
LTYPE
  5
37
330
5
100
AcDbSymbolTableRecord
100
AcDbLinetypeTableRecord
  2
DASHEDTINY
 70
    0
  3
Dashed (.15x) _ _ _ _ _ _ _ _ _ _ _ _ _ _ _ _ _
 72
   65
 73
    2
 40
2.8575
 49
1.905
 74
    0
 49
-0.9525
 74
    0
  0
LTYPE
  5
38
330
5
100
AcDbSymbolTableRecord
100
AcDbLinetypeTableRecord
  2
DASHED2
 70
    0
  3
Dashed (.5x) _ _ _ _ _ _ _ _ _ _ _ _ _ _ _ _ _
 72
   65
 73
    2
 40
9.524999999999999
 49
6.35
 74
    0
 49
-3.175
 74
    0
  0
LTYPE
  5
39
330
5
100
AcDbSymbolTableRecord
100
AcDbLinetypeTableRecord
  2
DASHEDX2
 70
    0
  3
Dashed (2x) ____  ____  ____  ____  ____  ___
 72
   65
 73
    2
 40
38.09999999999999
 49
25.4
 74
    0
 49
-12.7
 74
    0
  0
LTYPE
  5
3A
330
5
100
AcDbSymbolTableRecord
100
AcDbLinetypeTableRecord
  2
DASHDOT
 70
    0
  3
Dash dot __ . __ . __ . __ . __ . __ . __ . __
 72
   65
 73
    4
 40
25.4
 49
12.7
 74
    0
 49
-6.35
 74
    0
 49
0
 74
    0
 49
-6.35
 74
    0
  0
LTYPE
  5
3B
330
5
100
AcDbSymbolTableRecord
100
AcDbLinetypeTableRecord
  2
DASHDOTTINY
 70
    0
  3
Dash dot (.15x) _._._._._._._._._._._._._._._.
 72
   65
 73
    4
 40
3.81
 49
1.905
 74
    0
 49
-0.9525
 74
    0
 49
0
 74
    0
 49
-0.9525
 74
    0
  0
LTYPE
  5
3C
330
5
100
AcDbSymbolTableRecord
100
AcDbLinetypeTableRecord
  2
DASHDOT2
 70
    0
  3
Dash dot (.5x) _._._._._._._._._._._._._._._.
 72
   65
 73
    4
 40
12.7
 49
6.35
 74
    0
 49
-3.175
 74
    0
 49
0
 74
    0
 49
-3.175
 74
    0
  0
LTYPE
  5
3D
330
5
100
AcDbSymbolTableRecord
100
AcDbLinetypeTableRecord
  2
DASHDOTX2
 70
    0
  3
Dash dot (2x) ____  .  ____  .  ____  .  ___
 72
   65
 73
    4
 40
50.8
 49
25.4
 74
    0
 49
-12.7
 74
    0
 49
0
 74
    0
 49
-12.7
 74
    0
  0
LTYPE
  5
3E
330
5
100
AcDbSymbolTableRecord
100
AcDbLinetypeTableRecord
  2
DIVIDE
 70
    0
  3
Divide ____ . . ____ . . ____ . . ____ . . ____
 72
   65
 73
    6
 40
31.75
 49
12.7
 74
    0
 49
-6.35
 74
    0
 49
0
 74
    0
 49
-6.35
 74
    0
 49
0
 74
    0
 49
-6.35
 74
    0
  0
LTYPE
  5
3F
330
5
100
AcDbSymbolTableRecord
100
AcDbLinetypeTableRecord
  2
DIVIDETINY
 70
    0
  3
Divide (.15x) __..__..__..__..__..__..__..__.._
 72
   65
 73
    6
 40
4.7625
 49
1.905
 74
    0
 49
-0.9525
 74
    0
 49
0
 74
    0
 49
-0.9525
 74
    0
 49
0
 74
    0
 49
-0.9525
 74
    0
  0
LTYPE
  5
40
330
5
100
AcDbSymbolTableRecord
100
AcDbLinetypeTableRecord
  2
DIVIDE2
 70
    0
  3
Divide (.5x) __..__..__..__..__..__..__..__.._
 72
   65
 73
    6
 40
15.875
 49
6.35
 74
    0
 49
-3.175
 74
    0
 49
0
 74
    0
 49
-3.175
 74
    0
 49
0
 74
    0
 49
-3.175
 74
    0
  0
LTYPE
  5
41
330
5
100
AcDbSymbolTableRecord
100
AcDbLinetypeTableRecord
  2
DIVIDEX2
 70
    0
  3
Divide (2x) ________  .  .  ________  .  .  _
 72
   65
 73
    6
 40
63.5
 49
25.4
 74
    0
 49
-12.7
 74
    0
 49
0
 74
    0
 49
-12.7
 74
    0
 49
0
 74
    0
 49
-12.7
 74
    0
  0
LTYPE
  5
42
330
5
100
AcDbSymbolTableRecord
100
AcDbLinetypeTableRecord
  2
BORDER
 70
    0
  3
Border __ __ . __ __ . __ __ . __ __ . __ __ .
 72
   65
 73
    6
 40
44.45
 49
12.7
 74
    0
 49
-6.35
 74
    0
 49
12.7
 74
    0
 49
-6.35
 74
    0
 49
0
 74
    0
 49
-6.35
 74
    0
  0
LTYPE
  5
43
330
5
100
AcDbSymbolTableRecord
100
AcDbLinetypeTableRecord
  2
BORDERTINY
 70
    0
  3
Border (.15x) __.__.__.__.__.__.__.__.__.__.__.
 72
   65
 73
    6
 40
6.6675
 49
1.905
 74
    0
 49
-0.9525
 74
    0
 49
1.905
 74
    0
 49
-0.9525
 74
    0
 49
0
 74
    0
 49
-0.9525
 74
    0
  0
LTYPE
  5
44
330
5
100
AcDbSymbolTableRecord
100
AcDbLinetypeTableRecord
  2
BORDER2
 70
    0
  3
Border (.5x) __.__.__.__.__.__.__.__.__.__.__.
 72
   65
 73
    6
 40
22.225
 49
6.35
 74
    0
 49
-3.175
 74
    0
 49
6.35
 74
    0
 49
-3.175
 74
    0
 49
0
 74
    0
 49
-3.175
 74
    0
  0
LTYPE
  5
45
330
5
100
AcDbSymbolTableRecord
100
AcDbLinetypeTableRecord
  2
BORDERX2
 70
    0
  3
Border (2x) ____  ____  .  ____  ____  .  ___
 72
   65
 73
    6
 40
88.89999999999999
 49
25.4
 74
    0
 49
-12.7
 74
    0
 49
25.4
 74
    0
 49
-12.7
 74
    0
 49
0
 74
    0
 49
-12.7
 74
    0
  0
LTYPE
  5
46
330
5
100
AcDbSymbolTableRecord
100
AcDbLinetypeTableRecord
  2
CENTER
 70
    0
  3
Center ____ _ ____ _ ____ _ ____ _ ____ _ ____
 72
   65
 73
    4
 40
50.8
 49
31.75
 74
    0
 49
-6.35
 74
    0
 49
6.35
 74
    0
 49
-6.35
 74
    0
  0
LTYPE
  5
47
330
5
100
AcDbSymbolTableRecord
100
AcDbLinetypeTableRecord
  2
CENTERTINY
 70
    0
  3
Center (.15x) ___ _ ___ _ ___ _ ___ _ ___ _ ___
 72
   65
 73
    4
 40
7.619999999999999
 49
4.7625
 74
    0
 49
-0.9525
 74
    0
 49
0.9525
 74
    0
 49
-0.9525
 74
    0
  0
LTYPE
  5
48
330
5
100
AcDbSymbolTableRecord
100
AcDbLinetypeTableRecord
  2
CENTER2
 70
    0
  3
Center (.5x) ___ _ ___ _ ___ _ ___ _ ___ _ ___
 72
   65
 73
    4
 40
28.575
 49
19.05
 74
    0
 49
-3.175
 74
    0
 49
3.175
 74
    0
 49
-3.175
 74
    0
  0
LTYPE
  5
49
330
5
100
AcDbSymbolTableRecord
100
AcDbLinetypeTableRecord
  2
CENTERX2
 70
    0
  3
Center (2x) ________  __  ________  __  _____
 72
   65
 73
    4
 40
101.6
 49
63.5
 74
    0
 49
-12.7
 74
    0
 49
12.7
 74
    0
 49
-12.7
 74
    0
  0
ENDTAB
  0
TABLE
  2
LAYER
  5
2
330
0
100
AcDbSymbolTable
 70
    1
  0
LAYER
  5
10
330
2
100
AcDbSymbolTableRecord
100
AcDbLayerTableRecord
  2
0
 70
    0
 62
    7
  6
CONTINUOUS
370
    0
390
F
  0
LAYER
  5
4A
330
2
100
AcDbSymbolTableRecord
100
AcDbLayerTableRecord
  2
AxesConstruction
 70
    0
 62
    2
  6
CENTER2
370
    0
390
F
  0
LAYER
  5
4B
330
2
100
AcDbSymbolTableRecord
100
AcDbLayerTableRecord
  2
Coupe
 70
    0
 62
    1
  6
CONTINUOUS
370
    9
390
F
  0
LAYER
  5
4C
330
2
100
AcDbSymbolTableRecord
100
AcDbLayerTableRecord
  2
Côtes
 70
    0
 62
    6
  6
CONTINUOUS
370
    0
390
F
  0
LAYER
  5
4D
330
2
100
AcDbSymbolTableRecord
100
AcDbLayerTableRecord
  2
TraitsConstruction
 70
    0
 62
    3
  6
CONTINUOUS
370
    0
390
F
  0
ENDTAB
  0
TABLE
  2
STYLE
  5
3
330
0
100
AcDbSymbolTable
 70
    3
  0
STYLE
  5
4E
330
2
100
AcDbSymbolTableRecord
100
AcDbTextStyleTableRecord
  2
Standard
 70
    0
 40
0
 41
1
 50
0
 71
    0
 42
1
  3
txt
  4

  0
ENDTAB
  0
TABLE
  2
VIEW
  5
6
330
0
100
AcDbSymbolTable
 70
    0
  0
ENDTAB
  0
TABLE
  2
UCS
  5
7
330
0
100
AcDbSymbolTable
 70
    0
  0
ENDTAB
  0
TABLE
  2
APPID
  5
9
330
0
100
AcDbSymbolTable
 70
    1
  0
APPID
  5
12
330
9
100
AcDbSymbolTableRecord
100
AcDbRegAppTableRecord
  2
ACAD
 70
    0
  0
APPID
  5
4F
330
9
100
AcDbSymbolTableRecord
100
AcDbRegAppTableRecord
  2
LibreCad
 70
    0
  0
ENDTAB
  0
TABLE
  2
DIMSTYLE
  5
A
330
0
100
AcDbSymbolTable
 70
    1
100
AcDbDimStyleTable
 71
    1
  0
DIMSTYLE
105
50
330
A
100
AcDbSymbolTableRecord
100
AcDbDimStyleTableRecord
  2
Standard
 70
    0
 40
1
 41
5
 42
0.625
 43
0.38
 44
1.25
 45
0
 46
0
 47
0
 48
0
 49
1
140
5
141
0.09
142
0
143
25.4
144
1
145
0
146
1
147
0.625
148
0
 71
    0
 72
    0
 73
    0
 74
    1
 75
    0
 76
    0
 77
    0
 78
    8
 79
    0
170
    0
171
    2
172
    0
173
    0
174
    0
175
    0
176
    0
177
    0
178
    0
179
    0
271
    2
272
    4
273
    2
274
    2
275
    0
276
    0
277
    2
278
    0
279
    0
280
    0
281
    0
282
    0
283
    1
284
    0
285
    0
286
    0
288
    0
289
    3
340
standard
341

371
   -2
372
   -2
  0
ENDTAB
  0
TABLE
  2
BLOCK_RECORD
  5
1
330
0
100
AcDbSymbolTable
 70
    2
  0
BLOCK_RECORD
  5
1F
330
1
100
AcDbSymbolTableRecord
100
AcDbBlockTableRecord
  2
*Model_Space
 70
    0
280
    1
281
    0
  0
BLOCK_RECORD
  5
1E
330
1
100
AcDbSymbolTableRecord
100
AcDbBlockTableRecord
  2
*Paper_Space
 70
    0
280
    1
281
    0
  0
BLOCK_RECORD
  5
51
330
1
100
AcDbSymbolTableRecord
100
AcDbBlockTableRecord
  2
*D9
 70
    0
280
    1
281
    0
  0
BLOCK_RECORD
  5
54
330
1
100
AcDbSymbolTableRecord
100
AcDbBlockTableRecord
  2
*D11
 70
    0
280
    1
281
    0
  0
BLOCK_RECORD
  5
57
330
1
100
AcDbSymbolTableRecord
100
AcDbBlockTableRecord
  2
*D2
 70
    0
280
    1
281
    0
  0
BLOCK_RECORD
  5
5A
330
1
100
AcDbSymbolTableRecord
100
AcDbBlockTableRecord
  2
*D4
 70
    0
280
    1
281
    0
  0
BLOCK_RECORD
  5
5D
330
1
100
AcDbSymbolTableRecord
100
AcDbBlockTableRecord
  2
*D6
 70
    0
280
    1
281
    0
  0
BLOCK_RECORD
  5
60
330
1
100
AcDbSymbolTableRecord
100
AcDbBlockTableRecord
  2
*D13
 70
    0
280
    1
281
    0
  0
BLOCK_RECORD
  5
63
330
1
100
AcDbSymbolTableRecord
100
AcDbBlockTableRecord
  2
*D10
 70
    0
280
    1
281
    0
  0
BLOCK_RECORD
  5
66
330
1
100
AcDbSymbolTableRecord
100
AcDbBlockTableRecord
  2
*D8
 70
    0
280
    1
281
    0
  0
BLOCK_RECORD
  5
69
330
1
100
AcDbSymbolTableRecord
100
AcDbBlockTableRecord
  2
*D3
 70
    0
280
    1
281
    0
  0
BLOCK_RECORD
  5
6C
330
1
100
AcDbSymbolTableRecord
100
AcDbBlockTableRecord
  2
*D7
 70
    0
280
    1
281
    0
  0
BLOCK_RECORD
  5
6F
330
1
100
AcDbSymbolTableRecord
100
AcDbBlockTableRecord
  2
*D1
 70
    0
280
    1
281
    0
  0
BLOCK_RECORD
  5
72
330
1
100
AcDbSymbolTableRecord
100
AcDbBlockTableRecord
  2
*D5
 70
    0
280
    1
281
    0
  0
BLOCK_RECORD
  5
75
330
1
100
AcDbSymbolTableRecord
100
AcDbBlockTableRecord
  2
*D12
 70
    0
280
    1
281
    0
  0
ENDTAB
  0
ENDSEC
  0
SECTION
  2
BLOCKS
  0
BLOCK
  5
20
330
1F
100
AcDbEntity
  8
0
100
AcDbBlockBegin
  2
*Model_Space
 70
    0
 10
0
 20
0
 30
0
  3
*Model_Space
  1

  0
ENDBLK
  5
21
330
1F
100
AcDbEntity
  8
0
100
AcDbBlockEnd
  0
BLOCK
  5
1C
330
1B
100
AcDbEntity
  8
0
100
AcDbBlockBegin
  2
*Paper_Space
 70
    0
 10
0
 20
0
 30
0
  3
*Paper_Space
  1

  0
ENDBLK
  5
1D
330
1F
100
AcDbEntity
  8
0
100
AcDbBlockEnd
  0
BLOCK
  5
52
330
51
100
AcDbEntity
  8
0
100
AcDbBlockBegin
  2
*D9
 70
    1
 10
0
 20
0
  3
*D9
  1

  0
LINE
  5
78
100
AcDbEntity
  8
Côtes
  6
ByBlock
 62
    0
370
   -2
100
AcDbLine
 10
783.1624254720522
 20
100.2307145172675
 11
816.8375745279478
 21
109.7692854827325
  0
SOLID
  5
79
100
AcDbEntity
  8
Côtes
  6
ByBlock
 62
    0
370
   -2
100
AcDbTrace
 10
783.1624254720522
 20
100.2307145172675
 30
0
 11
787.7462604371801
 21
102.3944216780587
 31
0
 12
788.2000616657516
 22
100.7923133466092
 32
0
 13
788.2000616657516
 23
100.7923133466092
 33
0
  0
SOLID
  5
7A
100
AcDbEntity
  8
Côtes
  6
ByBlock
 62
    0
370
   -2
100
AcDbTrace
 10
816.8375745279478
 20
109.7692854827325
 30
0
 11
812.2537395628199
 21
107.6055783219413
 31
0
 12
811.7999383342484
 22
109.2076866533908
 32
0
 13
811.7999383342484
 23
109.2076866533908
 33
0
  0
MTEXT
  5
7B
100
AcDbEntity
  8
Côtes
  6
CONTINUOUS
 62
    0
370
   -2
100
AcDbMText
 10
799.1483418780834
 20
108.0067097371335
 30
0
 40
5
 41
6.111111111111732
 71
    5
 72
    1
  1
35
  7
standard
210
0
220
0
230
1
 50
15.81490788964946
 73
    2
 44
1
  0
ENDBLK
  5
53
330
51
100
AcDbEntity
  8
0
100
AcDbBlockEnd
  0
BLOCK
  5
55
330
54
100
AcDbEntity
  8
0
100
AcDbBlockBegin
  2
*D11
 70
    1
 10
0
 20
0
  3
*D11
  1

  0
LINE
  5
7C
100
AcDbEntity
  8
Côtes
  6
ByBlock
 62
    0
370
   -2
100
AcDbLine
 10
700
 20
30
 11
800
 21
30
  0
SOLID
  5
7D
100
AcDbEntity
  8
Côtes
  6
ByBlock
 62
    0
370
   -2
100
AcDbTrace
 10
700
 20
30
 30
0
 11
705
 21
30.83256931554568
 31
0
 12
705
 22
29.16743068445432
 32
0
 13
705
 23
29.16743068445432
 33
0
  0
SOLID
  5
7E
100
AcDbEntity
  8
Côtes
  6
ByBlock
 62
    0
370
   -2
100
AcDbTrace
 10
800
 20
30
 30
0
 11
795
 21
29.16743068445432
 31
0
 12
795
 22
30.83256931554568
 32
0
 13
795
 23
30.83256931554568
 33
0
  0
MTEXT
  5
7F
100
AcDbEntity
  8
Côtes
  6
CONTINUOUS
 62
    0
370
   -2
100
AcDbMText
 10
750
 20
33.125
 30
0
 40
5
 41
8.888888888888889
 71
    5
 72
    1
  1
100
  7
standard
210
0
220
0
230
1
 50
0
 73
    2
 44
1
  0
LINE
  5
80
100
AcDbEntity
  8
Côtes
  6
ByBlock
 62
    0
370
   -2
100
AcDbLine
 10
700
 20
39.375
 11
700
 21
28.75
  0
LINE
  5
81
100
AcDbEntity
  8
Côtes
  6
ByBlock
 62
    0
370
   -2
100
AcDbLine
 10
800
 20
39.375
 11
800
 21
28.75
  0
ENDBLK
  5
56
330
54
100
AcDbEntity
  8
0
100
AcDbBlockEnd
  0
BLOCK
  5
58
330
57
100
AcDbEntity
  8
0
100
AcDbBlockBegin
  2
*D2
 70
    1
 10
0
 20
0
  3
*D2
  1

  0
LINE
  5
82
100
AcDbEntity
  8
Côtes
  6
ByBlock
 62
    0
370
   -2
100
AcDbLine
 10
30
 20
-20
 11
500
 21
-20
  0
SOLID
  5
83
100
AcDbEntity
  8
Côtes
  6
ByBlock
 62
    0
370
   -2
100
AcDbTrace
 10
30
 20
-20
 30
0
 11
35
 21
-19.16743068445432
 31
0
 12
35
 22
-20.83256931554568
 32
0
 13
35
 23
-20.83256931554568
 33
0
  0
SOLID
  5
84
100
AcDbEntity
  8
Côtes
  6
ByBlock
 62
    0
370
   -2
100
AcDbTrace
 10
500
 20
-20
 30
0
 11
495
 21
-20.83256931554568
 31
0
 12
495
 22
-19.16743068445432
 32
0
 13
495
 23
-19.16743068445432
 33
0
  0
MTEXT
  5
85
100
AcDbEntity
  8
Côtes
  6
CONTINUOUS
 62
    0
370
   -2
100
AcDbMText
 10
265
 20
-16.875
 30
0
 40
5
 41
10.55555555555556
 71
    5
 72
    1
  1
470
  7
standard
210
0
220
0
230
1
 50
0
 73
    2
 44
1
  0
LINE
  5
86
100
AcDbEntity
  8
Côtes
  6
ByBlock
 62
    0
370
   -2
100
AcDbLine
 10
30
 20
19.375
 11
30
 21
-21.25
  0
LINE
  5
87
100
AcDbEntity
  8
Côtes
  6
ByBlock
 62
    0
370
   -2
100
AcDbLine
 10
500
 20
19.375
 11
500
 21
-21.25
  0
ENDBLK
  5
59
330
57
100
AcDbEntity
  8
0
100
AcDbBlockEnd
  0
BLOCK
  5
5B
330
5A
100
AcDbEntity
  8
0
100
AcDbBlockBegin
  2
*D4
 70
    1
 10
0
 20
0
  3
*D4
  1

  0
LINE
  5
88
100
AcDbEntity
  8
Côtes
  6
ByBlock
 62
    0
370
   -2
100
AcDbLine
 10
-39.99999999999998
 20
300
 11
-40
 21
2.842170943040401e-15
  0
SOLID
  5
89
100
AcDbEntity
  8
Côtes
  6
ByBlock
 62
    0
370
   -2
100
AcDbTrace
 10
-39.99999999999998
 20
300
 30
0
 11
-39.1674306844543
 21
295
 31
0
 12
-40.83256931554566
 22
295
 32
0
 13
-40.83256931554566
 23
295
 33
0
  0
SOLID
  5
8A
100
AcDbEntity
  8
Côtes
  6
ByBlock
 62
    0
370
   -2
100
AcDbTrace
 10
-40
 20
2.842170943040401e-15
 30
0
 11
-40.83256931554568
 21
5.000000000000003
 31
0
 12
-39.16743068445432
 22
5.000000000000003
 32
0
 13
-39.16743068445432
 23
5.000000000000003
 33
0
  0
MTEXT
  5
8B
100
AcDbEntity
  8
Côtes
  6
CONTINUOUS
 62
    0
370
   -2
100
AcDbMText
 10
-43.12499999999999
 20
150
 30
0
 40
5
 41
10.00000000000031
 71
    5
 72
    1
  1
300
  7
standard
210
0
220
0
230
1
 50
90
 73
    2
 44
1
  0
LINE
  5
8C
100
AcDbEntity
  8
Côtes
  6
ByBlock
 62
    0
370
   -2
100
AcDbLine
 10
-0.625
 20
300
 11
-41.24999999999998
 21
300
  0
LINE
  5
8D
100
AcDbEntity
  8
Côtes
  6
ByBlock
 62
    0
370
   -2
100
AcDbLine
 10
-0.625
 20
7.654042494670958e-17
 11
-41.25
 21
2.99525179293382e-15
  0
ENDBLK
  5
5C
330
5A
100
AcDbEntity
  8
0
100
AcDbBlockEnd
  0
BLOCK
  5
5E
330
5D
100
AcDbEntity
  8
0
100
AcDbBlockBegin
  2
*D6
 70
    1
 10
0
 20
0
  3
*D6
  1

  0
LINE
  5
8E
100
AcDbEntity
  8
Côtes
  6
ByBlock
 62
    0
370
   -2
100
AcDbLine
 10
680
 20
105
 11
680
 21
45
  0
SOLID
  5
8F
100
AcDbEntity
  8
Côtes
  6
ByBlock
 62
    0
370
   -2
100
AcDbTrace
 10
680
 20
105
 30
0
 11
680.8325693155457
 21
100
 31
0
 12
679.1674306844543
 22
100
 32
0
 13
679.1674306844543
 23
100
 33
0
  0
SOLID
  5
90
100
AcDbEntity
  8
Côtes
  6
ByBlock
 62
    0
370
   -2
100
AcDbTrace
 10
680
 20
45
 30
0
 11
679.1674306844543
 21
50
 31
0
 12
680.8325693155457
 22
50
 32
0
 13
680.8325693155457
 23
50
 33
0
  0
MTEXT
  5
91
100
AcDbEntity
  8
Côtes
  6
CONTINUOUS
 62
    0
370
   -2
100
AcDbMText
 10
676.875
 20
75
 30
0
 40
5
 41
6.111111111111422
 71
    5
 72
    1
  1
60
  7
standard
210
0
220
0
230
1
 50
90
 73
    2
 44
1
  0
LINE
  5
92
100
AcDbEntity
  8
Côtes
  6
ByBlock
 62
    0
370
   -2
100
AcDbLine
 10
729.375
 20
105
 11
678.75
 21
105
  0
LINE
  5
93
100
AcDbEntity
  8
Côtes
  6
ByBlock
 62
    0
370
   -2
100
AcDbLine
 10
689.375
 20
45
 11
678.75
 21
45
  0
ENDBLK
  5
5F
330
5D
100
AcDbEntity
  8
0
100
AcDbBlockEnd
  0
BLOCK
  5
61
330
60
100
AcDbEntity
  8
0
100
AcDbBlockBegin
  2
*D13
 70
    1
 10
0
 20
0
  3
*D13
  1

  0
LINE
  5
94
100
AcDbEntity
  8
Côtes
  6
ByBlock
 62
    0
370
   -2
100
AcDbLine
 10
7.960204194457796e-15
 20
-100
 11
-4.286263797015736e-15
 21
-300
  0
SOLID
  5
95
100
AcDbEntity
  8
Côtes
  6
ByBlock
 62
    0
370
   -2
100
AcDbTrace
 10
7.960204194457796e-15
 20
-100
 30
0
 11
0.8325693155456887
 21
-105
 31
0
 12
-0.8325693155456733
 22
-105
 32
0
 13
-0.8325693155456733
 23
-105
 33
0
  0
SOLID
  5
96
100
AcDbEntity
  8
Côtes
  6
ByBlock
 62
    0
370
   -2
100
AcDbTrace
 10
-4.286263797015736e-15
 20
-300
 30
0
 11
-0.8325693155456844
 21
-295
 31
0
 12
0.8325693155456775
 22
-295
 32
0
 13
0.8325693155456775
 23
-295
 33
0
  0
MTEXT
  5
97
100
AcDbEntity
  8
Côtes
  6
CONTINUOUS
 62
    0
370
   -2
100
AcDbMText
 10
-3.124999999999998
 20
-200
 30
0
 40
5
 41
10
 71
    5
 72
    1
  1
200
  7
standard
210
0
220
0
230
1
 50
90
 73
    2
 44
1
  0
LINE
  5
98
100
AcDbEntity
  8
Côtes
  6
ByBlock
 62
    0
370
   -2
100
AcDbLine
 10
29.375
 20
-100
 11
-1.249999999999992
 21
-100
  0
LINE
  5
99
100
AcDbEntity
  8
Côtes
  6
ByBlock
 62
    0
370
   -2
100
AcDbLine
 10
29.375
 20
-300
 11
-1.250000000000004
 21
-300
  0
ENDBLK
  5
62
330
60
100
AcDbEntity
  8
0
100
AcDbBlockEnd
  0
BLOCK
  5
64
330
63
100
AcDbEntity
  8
0
100
AcDbBlockBegin
  2
*D10
 70
    1
 10
0
 20
0
  3
*D10
  1

  0
LINE
  5
9A
100
AcDbEntity
  8
Côtes
  6
ByBlock
 62
    0
370
   -2
100
AcDbLine
 10
900
 20
30
 11
800
 21
30
  0
SOLID
  5
9B
100
AcDbEntity
  8
Côtes
  6
ByBlock
 62
    0
370
   -2
100
AcDbTrace
 10
900
 20
30
 30
0
 11
895
 21
29.16743068445432
 31
0
 12
895
 22
30.83256931554568
 32
0
 13
895
 23
30.83256931554568
 33
0
  0
SOLID
  5
9C
100
AcDbEntity
  8
Côtes
  6
ByBlock
 62
    0
370
   -2
100
AcDbTrace
 10
800
 20
30
 30
0
 11
805
 21
30.83256931554568
 31
0
 12
805
 22
29.16743068445432
 32
0
 13
805
 23
29.16743068445432
 33
0
  0
MTEXT
  5
9D
100
AcDbEntity
  8
Côtes
  6
CONTINUOUS
 62
    0
370
   -2
100
AcDbMText
 10
850
 20
33.125
 30
0
 40
5
 41
8.888888888888889
 71
    5
 72
    1
  1
100
  7
standard
210
0
220
0
230
1
 50
360
 73
    2
 44
1
  0
LINE
  5
9E
100
AcDbEntity
  8
Côtes
  6
ByBlock
 62
    0
370
   -2
100
AcDbLine
 10
900
 20
29.375
 11
900
 21
28.75
  0
LINE
  5
9F
100
AcDbEntity
  8
Côtes
  6
ByBlock
 62
    0
370
   -2
100
AcDbLine
 10
800
 20
61.375
 11
800
 21
28.75
  0
ENDBLK
  5
65
330
63
100
AcDbEntity
  8
0
100
AcDbBlockEnd
  0
BLOCK
  5
67
330
66
100
AcDbEntity
  8
0
100
AcDbBlockBegin
  2
*D8
 70
    1
 10
0
 20
0
  3
*D8
  1

  0
LINE
  5
A0
100
AcDbEntity
  8
Côtes
  6
ByBlock
 62
    0
370
   -2
100
AcDbLine
 10
700
 20
20
 11
900
 21
20
  0
SOLID
  5
A1
100
AcDbEntity
  8
Côtes
  6
ByBlock
 62
    0
370
   -2
100
AcDbTrace
 10
700
 20
20
 30
0
 11
705
 21
20.83256931554568
 31
0
 12
705
 22
19.16743068445432
 32
0
 13
705
 23
19.16743068445432
 33
0
  0
SOLID
  5
A2
100
AcDbEntity
  8
Côtes
  6
ByBlock
 62
    0
370
   -2
100
AcDbTrace
 10
900
 20
20
 30
0
 11
895
 21
19.16743068445432
 31
0
 12
895
 22
20.83256931554568
 32
0
 13
895
 23
20.83256931554568
 33
0
  0
MTEXT
  5
A3
100
AcDbEntity
  8
Côtes
  6
CONTINUOUS
 62
    0
370
   -2
100
AcDbMText
 10
800
 20
23.125
 30
0
 40
5
 41
10
 71
    5
 72
    1
  1
200
  7
standard
210
0
220
0
230
1
 50
0
 73
    2
 44
1
  0
LINE
  5
A4
100
AcDbEntity
  8
Côtes
  6
ByBlock
 62
    0
370
   -2
100
AcDbLine
 10
700
 20
39.375
 11
700
 21
18.75
  0
LINE
  5
A5
100
AcDbEntity
  8
Côtes
  6
ByBlock
 62
    0
370
   -2
100
AcDbLine
 10
900
 20
29.375
 11
900
 21
18.75
  0
ENDBLK
  5
68
330
66
100
AcDbEntity
  8
0
100
AcDbBlockEnd
  0
BLOCK
  5
6A
330
69
100
AcDbEntity
  8
0
100
AcDbBlockBegin
  2
*D3
 70
    1
 10
0
 20
0
  3
*D3
  1

  0
LINE
  5
A6
100
AcDbEntity
  8
Côtes
  6
ByBlock
 62
    0
370
   -2
100
AcDbLine
 10
-19.99999999999998
 20
270
 11
-20
 21
20
  0
SOLID
  5
A7
100
AcDbEntity
  8
Côtes
  6
ByBlock
 62
    0
370
   -2
100
AcDbTrace
 10
-19.99999999999998
 20
270
 30
0
 11
-19.1674306844543
 21
265
 31
0
 12
-20.83256931554566
 22
265
 32
0
 13
-20.83256931554566
 23
265
 33
0
  0
SOLID
  5
A8
100
AcDbEntity
  8
Côtes
  6
ByBlock
 62
    0
370
   -2
100
AcDbTrace
 10
-20
 20
20
 30
0
 11
-20.83256931554568
 21
25
 31
0
 12
-19.16743068445432
 22
25
 32
0
 13
-19.16743068445432
 23
25
 33
0
  0
MTEXT
  5
A9
100
AcDbEntity
  8
Côtes
  6
CONTINUOUS
 62
    0
370
   -2
100
AcDbMText
 10
-23.12499999999999
 20
145
 30
0
 40
5
 41
10.00000000000031
 71
    5
 72
    1
  1
250
  7
standard
210
0
220
0
230
1
 50
90
 73
    2
 44
1
  0
LINE
  5
AA
100
AcDbEntity
  8
Côtes
  6
ByBlock
 62
    0
370
   -2
100
AcDbLine
 10
19.375
 20
270
 11
-21.24999999999998
 21
270
  0
LINE
  5
AB
100
AcDbEntity
  8
Côtes
  6
ByBlock
 62
    0
370
   -2
100
AcDbLine
 10
19.375
 20
20
 11
-21.25
 21
20
  0
ENDBLK
  5
6B
330
69
100
AcDbEntity
  8
0
100
AcDbBlockEnd
  0
BLOCK
  5
6D
330
6C
100
AcDbEntity
  8
0
100
AcDbBlockBegin
  2
*D7
 70
    1
 10
0
 20
0
  3
*D7
  1

  0
LINE
  5
AC
100
AcDbEntity
  8
Côtes
  6
ByBlock
 62
    0
370
   -2
100
AcDbLine
 10
680
 20
165
 11
680
 21
105
  0
SOLID
  5
AD
100
AcDbEntity
  8
Côtes
  6
ByBlock
 62
    0
370
   -2
100
AcDbTrace
 10
680
 20
165
 30
0
 11
680.8325693155457
 21
160
 31
0
 12
679.1674306844543
 22
160
 32
0
 13
679.1674306844543
 23
160
 33
0
  0
SOLID
  5
AE
100
AcDbEntity
  8
Côtes
  6
ByBlock
 62
    0
370
   -2
100
AcDbTrace
 10
680
 20
105
 30
0
 11
679.1674306844543
 21
110
 31
0
 12
680.8325693155457
 22
110
 32
0
 13
680.8325693155457
 23
110
 33
0
  0
MTEXT
  5
AF
100
AcDbEntity
  8
Côtes
  6
CONTINUOUS
 62
    0
370
   -2
100
AcDbMText
 10
676.875
 20
135
 30
0
 40
5
 41
6.111111111111422
 71
    5
 72
    1
  1
60
  7
standard
210
0
220
0
230
1
 50
90
 73
    2
 44
1
  0
LINE
  5
B0
100
AcDbEntity
  8
Côtes
  6
ByBlock
 62
    0
370
   -2
100
AcDbLine
 10
686.375
 20
165
 11
678.75
 21
165
  0
LINE
  5
B1
100
AcDbEntity
  8
Côtes
  6
ByBlock
 62
    0
370
   -2
100
AcDbLine
 10
729.375
 20
105
 11
678.75
 21
105
  0
ENDBLK
  5
6E
330
6C
100
AcDbEntity
  8
0
100
AcDbBlockEnd
  0
BLOCK
  5
70
330
6F
100
AcDbEntity
  8
0
100
AcDbBlockBegin
  2
*D1
 70
    1
 10
0
 20
0
  3
*D1
  1

  0
LINE
  5
B2
100
AcDbEntity
  8
Côtes
  6
ByBlock
 62
    0
370
   -2
100
AcDbLine
 10
520
 20
45
 11
520
 21
165
  0
SOLID
  5
B3
100
AcDbEntity
  8
Côtes
  6
ByBlock
 62
    0
370
   -2
100
AcDbTrace
 10
520
 20
45
 30
0
 11
519.1674306844543
 21
50
 31
0
 12
520.8325693155457
 22
50
 32
0
 13
520.8325693155457
 23
50
 33
0
  0
SOLID
  5
B4
100
AcDbEntity
  8
Côtes
  6
ByBlock
 62
    0
370
   -2
100
AcDbTrace
 10
520
 20
165
 30
0
 11
520.8325693155457
 21
160
 31
0
 12
519.1674306844543
 22
160
 32
0
 13
519.1674306844543
 23
160
 33
0
  0
MTEXT
  5
B5
100
AcDbEntity
  8
Côtes
  6
CONTINUOUS
 62
    0
370
   -2
100
AcDbMText
 10
516.875
 20
105
 30
0
 40
5
 41
8.888888888888889
 71
    5
 72
    1
  1
120
  7
standard
210
0
220
0
230
1
 50
90
 73
    2
 44
1
  0
LINE
  5
B6
100
AcDbEntity
  8
Côtes
  6
ByBlock
 62
    0
370
   -2
100
AcDbLine
 10
524.375
 20
45
 11
518.75
 21
45
  0
LINE
  5
B7
100
AcDbEntity
  8
Côtes
  6
ByBlock
 62
    0
370
   -2
100
AcDbLine
 10
524.375
 20
165
 11
518.75
 21
165
  0
ENDBLK
  5
71
330
6F
100
AcDbEntity
  8
0
100
AcDbBlockEnd
  0
BLOCK
  5
73
330
72
100
AcDbEntity
  8
0
100
AcDbBlockBegin
  2
*D5
 70
    1
 10
0
 20
0
  3
*D5
  1

  0
LINE
  5
B8
100
AcDbEntity
  8
Côtes
  6
ByBlock
 62
    0
370
   -2
100
AcDbLine
 10
0
 20
-40
 11
600
 21
-40
  0
SOLID
  5
B9
100
AcDbEntity
  8
Côtes
  6
ByBlock
 62
    0
370
   -2
100
AcDbTrace
 10
0
 20
-40
 30
0
 11
5
 21
-39.16743068445432
 31
0
 12
5
 22
-40.83256931554568
 32
0
 13
5
 23
-40.83256931554568
 33
0
  0
SOLID
  5
BA
100
AcDbEntity
  8
Côtes
  6
ByBlock
 62
    0
370
   -2
100
AcDbTrace
 10
600
 20
-40
 30
0
 11
595
 21
-40.83256931554568
 31
0
 12
595
 22
-39.16743068445432
 32
0
 13
595
 23
-39.16743068445432
 33
0
  0
MTEXT
  5
BB
100
AcDbEntity
  8
Côtes
  6
CONTINUOUS
 62
    0
370
   -2
100
AcDbMText
 10
300
 20
-36.875
 30
0
 40
5
 41
10.00000000000031
 71
    5
 72
    1
  1
600
  7
standard
210
0
220
0
230
1
 50
0
 73
    2
 44
1
  0
LINE
  5
BC
100
AcDbEntity
  8
Côtes
  6
ByBlock
 62
    0
370
   -2
100
AcDbLine
 10
-1.148106374200643e-16
 20
-0.625
 11
-2.296212748401287e-16
 21
-41.25
  0
LINE
  5
BD
100
AcDbEntity
  8
Côtes
  6
ByBlock
 62
    0
370
   -2
100
AcDbLine
 10
600
 20
-0.625
 11
600
 21
-41.25
  0
ENDBLK
  5
74
330
72
100
AcDbEntity
  8
0
100
AcDbBlockEnd
  0
BLOCK
  5
76
330
75
100
AcDbEntity
  8
0
100
AcDbBlockBegin
  2
*D12
 70
    1
 10
0
 20
0
  3
*D12
  1

  0
LINE
  5
BE
100
AcDbEntity
  8
Côtes
  6
ByBlock
 62
    0
370
   -2
100
AcDbLine
 10
-300
 20
-20
 11
-100
 21
-20
  0
SOLID
  5
BF
100
AcDbEntity
  8
Côtes
  6
ByBlock
 62
    0
370
   -2
100
AcDbTrace
 10
-300
 20
-20
 30
0
 11
-295
 21
-19.16743068445432
 31
0
 12
-295
 22
-20.83256931554568
 32
0
 13
-295
 23
-20.83256931554568
 33
0
  0
SOLID
  5
C0
100
AcDbEntity
  8
Côtes
  6
ByBlock
 62
    0
370
   -2
100
AcDbTrace
 10
-100
 20
-20
 30
0
 11
-105
 21
-20.83256931554568
 31
0
 12
-105
 22
-19.16743068445432
 32
0
 13
-105
 23
-19.16743068445432
 33
0
  0
MTEXT
  5
C1
100
AcDbEntity
  8
Côtes
  6
CONTINUOUS
 62
    0
370
   -2
100
AcDbMText
 10
-200
 20
-16.875
 30
0
 40
5
 41
10
 71
    5
 72
    1
  1
200
  7
standard
210
0
220
0
230
1
 50
0
 73
    2
 44
1
  0
LINE
  5
C2
100
AcDbEntity
  8
Côtes
  6
ByBlock
 62
    0
370
   -2
100
AcDbLine
 10
-300
 20
19.375
 11
-300
 21
-21.25
  0
LINE
  5
C3
100
AcDbEntity
  8
Côtes
  6
ByBlock
 62
    0
370
   -2
100
AcDbLine
 10
-100
 20
19.375
 11
-100
 21
-21.25
  0
ENDBLK
  5
77
330
75
100
AcDbEntity
  8
0
100
AcDbBlockEnd
  0
ENDSEC
  0
SECTION
  2
ENTITIES
  0
LINE
  5
C4
100
AcDbEntity
  8
TraitsConstruction
  6
ByLayer
 62
  256
370
   -1
100
AcDbLine
 10
20
 20
20
 11
20
 21
270
  0
LINE
  5
C5
100
AcDbEntity
  8
TraitsConstruction
  6
ByLayer
 62
  256
370
   -1
100
AcDbLine
 10
20
 20
270
 11
30
 21
270
  0
LINE
  5
C6
100
AcDbEntity
  8
TraitsConstruction
  6
ByLayer
 62
  256
370
   -1
100
AcDbLine
 10
30
 20
270
 11
30
 21
20
  0
LINE
  5
C7
100
AcDbEntity
  8
TraitsConstruction
  6
ByLayer
 62
  256
370
   -1
100
AcDbLine
 10
30
 20
20
 11
20
 21
20
  0
LINE
  5
C8
100
AcDbEntity
  8
TraitsConstruction
  6
ByLayer
 62
  256
370
   -1
100
AcDbLine
 10
30
 20
20
 11
500
 21
20
  0
LINE
  5
C9
100
AcDbEntity
  8
TraitsConstruction
  6
ByLayer
 62
  256
370
   -1
100
AcDbLine
 10
500
 20
20
 11
500
 21
30
  0
LINE
  5
CA
100
AcDbEntity
  8
TraitsConstruction
  6
ByLayer
 62
  256
370
   -1
100
AcDbLine
 10
500
 20
30
 11
30
 21
30
  0
LINE
  5
CB
100
AcDbEntity
  8
AxesConstruction
  6
ByLayer
 62
  256
370
   -1
100
AcDbLine
 10
500
 20
50
 11
550
 21
50
  0
LINE
  5
CC
100
AcDbEntity
  8
AxesConstruction
  6
ByLayer
 62
  256
370
   -1
100
AcDbLine
 10
530
 20
30
 11
530
 21
80
  0
LINE
  5
CD
100
AcDbEntity
  8
AxesConstruction
  6
ByLayer
 62
  256
370
   -1
100
AcDbLine
 10
500
 20
160
 11
550
 21
160
  0
LINE
  5
CE
100
AcDbEntity
  8
AxesConstruction
  6
ByLayer
 62
  256
370
   -1
100
AcDbLine
 10
530
 20
140
 11
530
 21
190
  0
LINE
  5
CF
100
AcDbEntity
  8
TraitsConstruction
  6
ByLayer
 62
  256
370
   -1
100
AcDbLine
 10
525
 20
45
 11
535
 21
45
  0
LINE
  5
D0
100
AcDbEntity
  8
TraitsConstruction
  6
ByLayer
 62
  256
370
   -1
100
AcDbLine
 10
535
 20
45
 11
535
 21
55
  0
LINE
  5
D1
100
AcDbEntity
  8
TraitsConstruction
  6
ByLayer
 62
  256
370
   -1
100
AcDbLine
 10
535
 20
55
 11
525
 21
55
  0
LINE
  5
D2
100
AcDbEntity
  8
TraitsConstruction
  6
ByLayer
 62
  256
370
   -1
100
AcDbLine
 10
525
 20
55
 11
525
 21
45
  0
CIRCLE
  5
D3
100
AcDbEntity
  8
Coupe
  6
ByLayer
 62
  256
370
   -1
100
AcDbCircle
 10
530
 20
50
 40
7.071067811865476
  0
DIMENSION
  5
D4
100
AcDbEntity
  8
Côtes
  6
ByLayer
 62
  256
370
   -1
100
AcDbDimension
  2
*D1
 10
520
 20
165
 30
0
 11
516.875
 21
105
 31
0
 70
   32
 71
    5
 72
    0
  3
Standard
 53
0
210
0
220
0
230
1
100
AcDbAlignedDimension
 13
525
 23
45
 33
0
 14
525
 24
165
 34
0
 50
90
100
AcDbRotatedDimension
  0
DIMENSION
  5
D5
100
AcDbEntity
  8
Côtes
  6
ByLayer
 62
  256
370
   -1
100
AcDbDimension
  2
*D2
 10
500
 20
-20
 30
0
 11
265
 21
-16.875
 31
0
 70
   32
 71
    5
 72
    0
  3
Standard
 53
0
210
0
220
0
230
1
100
AcDbAlignedDimension
 13
30
 23
20
 33
0
 14
500
 24
20
 34
0
100
AcDbRotatedDimension
  0
DIMENSION
  5
D6
100
AcDbEntity
  8
Côtes
  6
ByLayer
 62
  256
370
   -1
100
AcDbDimension
  2
*D3
 10
-20
 20
20
 30
0
 11
-23.12499999999999
 21
145
 31
0
 70
   32
 71
    5
 72
    0
  3
Standard
 53
0
210
0
220
0
230
1
100
AcDbAlignedDimension
 13
20
 23
270
 33
0
 14
20
 24
20
 34
0
 50
90
100
AcDbRotatedDimension
  0
DIMENSION
  5
D7
100
AcDbEntity
  8
Côtes
  6
ByLayer
 62
  256
370
   -1
100
AcDbDimension
  2
*D4
 10
-40
 20
4.898587196589413e-15
 30
0
 11
-43.12499999999999
 21
150
 31
0
 70
   32
 71
    5
 72
    0
  3
Standard
 53
0
210
0
220
0
230
1
100
AcDbAlignedDimension
 13
0
 23
300
 33
0
 14
0
 24
0
 34
0
 50
90
100
AcDbRotatedDimension
  0
DIMENSION
  5
D8
100
AcDbEntity
  8
Côtes
  6
ByLayer
 62
  256
370
   -1
100
AcDbDimension
  2
*D5
 10
600
 20
-40
 30
0
 11
300
 21
-36.875
 31
0
 70
   32
 71
    5
 72
    0
  3
Standard
 53
0
210
0
220
0
230
1
100
AcDbAlignedDimension
 13
0
 23
0
 33
0
 14
600
 24
0
 34
0
100
AcDbRotatedDimension
  0
LINE
  5
D9
100
AcDbEntity
  8
TraitsConstruction
  6
ByLayer
 62
  256
370
   -1
100
AcDbLine
 10
-100
 20
270
 11
-100
 21
20
  0
LINE
  5
DA
100
AcDbEntity
  8
TraitsConstruction
  6
ByLayer
 62
  256
370
   -1
100
AcDbLine
 10
-100
 20
20
 11
-230
 21
20
  0
LINE
  5
DB
100
AcDbEntity
  8
TraitsConstruction
  6
ByLayer
 62
  256
370
   -1
100
AcDbLine
 10
-230
 20
270
 11
-100
 21
270
  0
LINE
  5
DC
100
AcDbEntity
  8
TraitsConstruction
  6
ByLayer
 62
  256
370
   -1
100
AcDbLine
 10
-90
 20
270
 11
-90
 21
20
  0
LINE
  5
DD
100
AcDbEntity
  8
TraitsConstruction
  6
ByLayer
 62
  256
370
   -1
100
AcDbLine
 10
30
 20
-100
 11
500
 21
-100
  0
LINE
  5
DE
100
AcDbEntity
  8
TraitsConstruction
  6
ByLayer
 62
  256
370
   -1
100
AcDbLine
 10
500
 20
-100
 11
500
 21
-230
  0
LINE
  5
DF
100
AcDbEntity
  8
TraitsConstruction
  6
ByLayer
 62
  256
370
   -1
100
AcDbLine
 10
30
 20
-230
 11
30
 21
-100
  0
LINE
  5
E0
100
AcDbEntity
  8
TraitsConstruction
  6
ByLayer
 62
  256
370
   -1
100
AcDbLine
 10
30
 20
-90
 11
500
 21
-90
  0
LINE
  5
E1
100
AcDbEntity
  8
TraitsConstruction
  6
ByLayer
 62
  256
370
   -1
100
AcDbLine
 10
700
 20
165
 11
700
 21
45
  0
LINE
  5
E2
100
AcDbEntity
  8
TraitsConstruction
  6
ByLayer
 62
  256
370
   -1
100
AcDbLine
 10
690
 20
165
 11
690
 21
45
  0
DIMENSION
  5
E3
100
AcDbEntity
  8
Côtes
  6
ByLayer
 62
  256
370
   -1
100
AcDbDimension
  2
*D6
 10
680
 20
45
 30
0
 11
676.875
 21
75
 31
0
 70
   32
 71
    5
 72
    0
  3
Standard
 53
0
210
0
220
0
230
1
100
AcDbAlignedDimension
 13
730
 23
105
 33
0
 14
690
 24
45
 34
0
 50
90
100
AcDbRotatedDimension
  0
DIMENSION
  5
E4
100
AcDbEntity
  8
Côtes
  6
ByLayer
 62
  256
370
   -1
100
AcDbDimension
  2
*D7
 10
680
 20
100
 30
0
 11
676.875
 21
135
 31
0
 70
   32
 71
    5
 72
    0
  3
Standard
 53
0
210
0
220
0
230
1
100
AcDbAlignedDimension
 13
687
 23
165
 33
0
 14
730
 24
105
 34
0
 50
90
100
AcDbRotatedDimension
  0
LINE
  5
E5
100
AcDbEntity
  8
Coupe
  6
ByLayer
 62
  256
370
   -1
100
AcDbLine
 10
0
 20
-330
 11
600
 21
-330
  0
LINE
  5
E6
100
AcDbEntity
  8
Coupe
  6
ByLayer
 62
  256
370
   -1
100
AcDbLine
 10
600
 20
-330
 11
600
 21
-560
  0
LINE
  5
E7
100
AcDbEntity
  8
Coupe
  6
ByLayer
 62
  256
370
   -1
100
AcDbLine
 10
600
 20
-560
 11
0
 21
-630
  0
LINE
  5
E8
100
AcDbEntity
  8
Coupe
  6
ByLayer
 62
  256
370
   -1
100
AcDbLine
 10
0
 20
-630
 11
0
 21
-330
  0
CIRCLE
  5
E9
100
AcDbEntity
  8
Coupe
  6
ByLayer
 62
  256
370
   -1
100
AcDbCircle
 10
530
 20
-380
 40
7.071067811865476
  0
DIMENSION
  5
EA
100
AcDbEntity
  8
Côtes
  6
ByLayer
 62
  256
370
   -1
100
AcDbDimension
  2
*D8
 10
830
 20
20
 30
0
 11
800
 21
23.125
 31
0
 70
   32
 71
    5
 72
    0
  3
Standard
 53
0
210
0
220
0
230
1
100
AcDbAlignedDimension
 13
700
 23
40
 33
0
 14
900
 24
30
 34
0
100
AcDbRotatedDimension
  0
LINE
  5
EB
100
AcDbEntity
  8
TraitsConstruction
  6
ByLayer
 62
  256
370
   -1
100
AcDbLine
 10
900
 20
165
 11
900
 21
45
  0
LINE
  5
EC
100
AcDbEntity
  8
TraitsConstruction
  6
ByLayer
 62
  256
370
   -1
100
AcDbLine
 10
910
 20
165
 11
910
 21
45
  0
LINE
  5
ED
100
AcDbEntity
  8
AxesConstruction
  6
ByLayer
 62
  256
370
   -1
100
AcDbLine
 10
800
 20
136
 11
800
 21
62
  0
LINE
  5
EE
100
AcDbEntity
  8
AxesConstruction
  6
ByLayer
 62
  256
370
   -1
100
AcDbLine
 10
765
 20
105
 11
833
 21
105
  0
CIRCLE
  5
EF
100
AcDbEntity
  8
Coupe
  6
ByLayer
 62
  256
370
   -1
100
AcDbCircle
 10
800
 20
105
 40
17.5
  0
DIMENSION
  5
F0
100
AcDbEntity
  8
Côtes
  6
ByLayer
 62
  256
370
   -1
100
AcDbDimension
  2
*D9
 10
783.1624254720522
 20
100.2307145172675
 30
0
 11
799.1483418780834
 21
108.0067097371335
 31
0
 70
   35
 71
    5
 72
    0
  3
Standard
 53
0
210
0
220
0
230
1
100
AcDbDiametricDimension
 15
816.8375745279478
 25
109.7692854827325
 35
0
 40
0
  0
DIMENSION
  5
F1
100
AcDbEntity
  8
Côtes
  6
ByLayer
 62
  256
370
   -1
100
AcDbDimension
  2
*D10
 10
800
 20
30
 30
0
 11
850
 21
33.125
 31
0
 70
   32
 71
    5
 72
    0
  3
Standard
 53
0
210
0
220
0
230
1
100
AcDbAlignedDimension
 13
900
 23
30
 33
0
 14
800
 24
62
 34
0
100
AcDbRotatedDimension
  0
DIMENSION
  5
F2
100
AcDbEntity
  8
Côtes
  6
ByLayer
 62
  256
370
   -1
100
AcDbDimension
  2
*D11
 10
800
 20
30
 30
0
 11
750
 21
33.125
 31
0
 70
   32
 71
    5
  3
Standard
 53
0
210
0
220
0
230
1
100
AcDbAlignedDimension
 13
700
 23
40
 33
0
 14
800
 24
40
 34
0
100
AcDbRotatedDimension
  0
LINE
  5
F3
100
AcDbEntity
  8
TraitsConstruction
  6
ByLayer
 62
  256
370
   -1
100
AcDbLine
 10
-300
 20
20
 11
-300
 21
270
  0
LINE
  5
F4
100
AcDbEntity
  8
TraitsConstruction
  6
ByLayer
 62
  256
370
   -1
100
AcDbLine
 10
-310
 20
270
 11
-310
 21
20
  0
DIMENSION
  5
F5
100
AcDbEntity
  8
Côtes
  6
ByLayer
 62
  256
370
   -1
100
AcDbDimension
  2
*D12
 10
-100
 20
-20
 30
0
 11
-200
 21
-16.875
 31
0
 70
   32
 71
    5
 72
    0
  3
Standard
 53
0
210
0
220
0
230
1
100
AcDbAlignedDimension
 13
-300
 23
20
 33
0
 14
-100
 24
20
 34
0
100
AcDbRotatedDimension
  0
DIMENSION
  5
F6
100
AcDbEntity
  8
Côtes
  6
ByLayer
 62
  256
370
   -1
100
AcDbDimension
  2
*D13
 10
0
 20
-230
 30
0
 11
-3.124999999999998
 21
-200
 31
0
 70
   32
 71
    5
 72
    0
  3
Standard
 53
0
210
0
220
0
230
1
100
AcDbAlignedDimension
 13
30
 23
-100
 33
0
 14
30
 24
-300
 34
0
 50
90
100
AcDbRotatedDimension
  0
LINE
  5
F7
100
AcDbEntity
  8
TraitsConstruction
  6
ByLayer
 62
  256
370
   -1
100
AcDbLine
 10
500
 20
-300
 11
30
 21
-300
  0
LINE
  5
F8
100
AcDbEntity
  8
TraitsConstruction
  6
ByLayer
 62
  256
370
   -1
100
AcDbLine
 10
500
 20
-310
 11
30
 21
-310
  0
LINE
  5
F9
100
AcDbEntity
  8
TraitsConstruction
  6
ByLayer
 62
  256
370
   -1
100
AcDbLine
 10
30
 20
-300
 11
500
 21
-300
  0
LINE
  5
FA
100
AcDbEntity
  8
TraitsConstruction
  6
ByLayer
 62
  256
370
   -1
100
AcDbLine
 10
30
 20
-310
 11
500
 21
-310
  0
LWPOLYLINE
  5
FB
100
AcDbEntity
  8
Coupe
  6
ByLayer
 62
  256
370
   -1
100
AcDbPolyline
 90
   36
 70
    1
 43
0
 10
-100
 20
270
 10
-300
 20
270
 10
-300
 20
240
 10
-310
 20
240
 10
-310
 20
220
 10
-300
 20
220
 10
-300
 20
190
 10
-310
 20
190
 10
-310
 20
170
 10
-300
 20
170
 10
-300
 20
120
 10
-310
 20
120
 10
-310
 20
100
 10
-300
 20
100
 10
-300
 20
70
 10
-310
 20
70
 10
-310
 20
50
 10
-300
 20
50
 10
-300
 20
20
 10
-100
 20
20
 10
-100
 20
50
 10
-90
 20
50
 10
-90
 20
70
 10
-100
 20
70
 10
-100
 20
100
 10
-90
 20
100
 10
-90
 20
120
 10
-100
 20
120
 10
-100
 20
170
 10
-90
 20
170
 10
-90
 20
190
 10
-100
 20
190
 10
-100
 20
220
 10
-90
 20
220
 10
-90
 20
240
 10
-100
 20
240
  0
LWPOLYLINE
  5
FC
100
AcDbEntity
  8
Coupe
  6
ByLayer
 62
  256
370
   -1
100
AcDbPolyline
 90
   68
 70
    1
 43
0
 10
470
 20
-300
 10
470
 20
-310
 10
450
 20
-310
 10
450
 20
-300
 10
420
 20
-300
 10
420
 20
-310
 10
400
 20
-310
 10
400
 20
-300
 10
370
 20
-300
 10
370
 20
-310
 10
350
 20
-310
 10
350
 20
-300
 10
320
 20
-300
 10
320
 20
-310
 10
300
 20
-310
 10
300
 20
-300
 10
230
 20
-300
 10
230
 20
-310
 10
210
 20
-310
 10
210
 20
-300
 10
180
 20
-300
 10
180
 20
-310
 10
160
 20
-310
 10
160
 20
-300
 10
130
 20
-300
 10
130
 20
-310
 10
110
 20
-310
 10
110
 20
-300
 10
80
 20
-300
 10
80
 20
-310
 10
60
 20
-310
 10
60
 20
-300
 10
30
 20
-300
 10
30
 20
-100
 10
60
 20
-100
 10
60
 20
-90
 10
80
 20
-90
 10
80
 20
-100
 10
110
 20
-100
 10
110
 20
-90
 10
130
 20
-90
 10
130
 20
-100
 10
160
 20
-100
 10
160
 20
-90
 10
180
 20
-90
 10
180
 20
-100
 10
210
 20
-100
 10
210
 20
-90
 10
230
 20
-90
 10
230
 20
-100
 10
300
 20
-100
 10
300
 20
-90
 10
320
 20
-90
 10
320
 20
-100
 10
350
 20
-100
 10
350
 20
-90
 10
370
 20
-90
 10
370
 20
-100
 10
400
 20
-100
 10
400
 20
-90
 10
420
 20
-90
 10
420
 20
-100
 10
450
 20
-100
 10
450
 20
-90
 10
470
 20
-90
 10
470
 20
-100
 10
500
 20
-100
 10
500
 20
-300
  0
LWPOLYLINE
  5
FD
100
AcDbEntity
  8
Coupe
  6
ByLayer
 62
  256
370
   -1
100
AcDbPolyline
 90
    4
 70
    1
 43
0
 10
30
 20
240
 10
30
 20
220
 10
20
 20
220
 10
20
 20
240
  0
LWPOLYLINE
  5
FE
100
AcDbEntity
  8
Coupe
  6
ByLayer
 62
  256
370
   -1
100
AcDbPolyline
 90
    4
 70
    1
 43
0
 10
30
 20
190
 10
30
 20
170
 10
20
 20
170
 10
20
 20
190
  0
LWPOLYLINE
  5
FF
100
AcDbEntity
  8
Coupe
  6
ByLayer
 62
  256
370
   -1
100
AcDbPolyline
 90
    4
 70
    1
 43
0
 10
30
 20
120
 10
30
 20
100
 10
20
 20
100
 10
20
 20
120
  0
LWPOLYLINE
  5
100
100
AcDbEntity
  8
Coupe
  6
ByLayer
 62
  256
370
   -1
100
AcDbPolyline
 90
    4
 70
    1
 43
0
 10
30
 20
70
 10
30
 20
50
 10
20
 20
50
 10
20
 20
70
  0
LWPOLYLINE
  5
101
100
AcDbEntity
  8
Coupe
  6
ByLayer
 62
  256
370
   -1
100
AcDbPolyline
 90
    4
 70
    1
 43
0
 10
60
 20
20
 10
80
 20
20
 10
80
 20
30
 10
60
 20
30
  0
LWPOLYLINE
  5
102
100
AcDbEntity
  8
Coupe
  6
ByLayer
 62
  256
370
   -1
100
AcDbPolyline
 90
    4
 70
    1
 43
0
 10
110
 20
20
 10
130
 20
20
 10
130
 20
30
 10
110
 20
30
  0
LWPOLYLINE
  5
103
100
AcDbEntity
  8
Coupe
  6
ByLayer
 62
  256
370
   -1
100
AcDbPolyline
 90
    4
 70
    1
 43
0
 10
160
 20
20
 10
180
 20
20
 10
180
 20
30
 10
160
 20
30
  0
LWPOLYLINE
  5
104
100
AcDbEntity
  8
Coupe
  6
ByLayer
 62
  256
370
   -1
100
AcDbPolyline
 90
    4
 70
    1
 43
0
 10
210
 20
20
 10
230
 20
20
 10
230
 20
30
 10
210
 20
30
  0
LWPOLYLINE
  5
105
100
AcDbEntity
  8
Coupe
  6
ByLayer
 62
  256
370
   -1
100
AcDbPolyline
 90
    4
 70
    1
 43
0
 10
300
 20
20
 10
320
 20
20
 10
320
 20
30
 10
300
 20
30
  0
LWPOLYLINE
  5
106
100
AcDbEntity
  8
Coupe
  6
ByLayer
 62
  256
370
   -1
100
AcDbPolyline
 90
    4
 70
    1
 43
0
 10
350
 20
20
 10
370
 20
20
 10
370
 20
30
 10
350
 20
30
  0
LWPOLYLINE
  5
107
100
AcDbEntity
  8
Coupe
  6
ByLayer
 62
  256
370
   -1
100
AcDbPolyline
 90
    4
 70
    1
 43
0
 10
400
 20
30
 10
420
 20
30
 10
420
 20
20
 10
400
 20
20
  0
LWPOLYLINE
  5
108
100
AcDbEntity
  8
Coupe
  6
ByLayer
 62
  256
370
   -1
100
AcDbPolyline
 90
    4
 70
    1
 43
0
 10
450
 20
30
 10
470
 20
30
 10
470
 20
20
 10
450
 20
20
  0
LWPOLYLINE
  5
109
100
AcDbEntity
  8
Coupe
  6
ByLayer
 62
  256
370
   -1
100
AcDbPolyline
 90
    4
 70
    1
 43
0
 10
535
 20
155
 10
535
 20
165
 10
525
 20
165
 10
525
 20
155
  0
LWPOLYLINE
  5
10A
100
AcDbEntity
  8
Coupe
  6
ByLayer
 62
  256
370
   -1
100
AcDbPolyline
 90
    5
 70
    0
 43
0
 10
543.3090198899666
 20
154.2730549546165
 10
553.1570974200887
 20
152.5365731779472
 10
554.8935791967581
 20
162.3846507080693
 10
545.0455016666359
 20
164.1211324847386
 10
543.3090198899666
 20
154.2730549546165
  0
LWPOLYLINE
  5
10B
100
AcDbEntity
  8
Coupe
  6
ByLayer
 62
  256
370
   -1
100
AcDbPolyline
 90
    4
 70
    1
 43
0
 10
570.6105781531247
 20
146.957624465892
 10
574.0307795863814
 20
156.3545506737511
 10
564.6338533785224
 20
159.7747521070078
 10
561.2136519452657
 20
150.3778258991487
  0
LWPOLYLINE
  5
10C
100
AcDbEntity
  8
Coupe
  6
ByLayer
 62
  256
370
   -1
100
AcDbPolyline
 90
    4
 70
    1
 43
0
 10
586.8301270189222
 20
138.4326673973661
 10
591.8301270189222
 20
147.0929214352105
 10
583.1698729810778
 20
152.0929214352105
 10
578.1698729810778
 20
143.4326673973661
  0
LWPOLYLINE
  5
10D
100
AcDbEntity
  8
Coupe
  6
ByLayer
 62
  256
370
   -1
100
AcDbPolyline
 90
    4
 70
    1
 43
0
 10
600
 20
0
 10
600
 20
230
 10
0
 20
300
 10
0
 20
0
  0
LWPOLYLINE
  5
10E
100
AcDbEntity
  8
Coupe
  6
ByLayer
 62
  256
370
   -1
100
AcDbPolyline
 90
   12
 70
    1
 43
0
 10
700
 20
155
 10
700
 20
55
 10
690
 20
55
 10
690
 20
45
 10
910
 20
45
 10
910
 20
55
 10
900
 20
55
 10
900
 20
155
 10
910
 20
155
 10
910
 20
165
 10
690
 20
165
 10
690
 20
155
  0
LWPOLYLINE
  5
10F
100
AcDbEntity
  8
Coupe
  6
ByLayer
 62
  256
370
   -1
100
AcDbPolyline
 90
    4
 70
    1
 43
0
 10
30
 20
-400
 10
30
 20
-380
 10
20
 20
-380
 10
20
 20
-400
  0
LWPOLYLINE
  5
110
100
AcDbEntity
  8
Coupe
  6
ByLayer
 62
  256
370
   -1
100
AcDbPolyline
 90
    4
 70
    1
 43
0
 10
30
 20
-450
 10
30
 20
-430
 10
20
 20
-430
 10
20
 20
-450
  0
LWPOLYLINE
  5
111
100
AcDbEntity
  8
Coupe
  6
ByLayer
 62
  256
370
   -1
100
AcDbPolyline
 90
    4
 70
    1
 43
0
 10
30
 20
-520
 10
30
 20
-500
 10
20
 20
-500
 10
20
 20
-520
  0
LWPOLYLINE
  5
112
100
AcDbEntity
  8
Coupe
  6
ByLayer
 62
  256
370
   -1
100
AcDbPolyline
 90
    4
 70
    1
 43
0
 10
30
 20
-570
 10
30
 20
-550
 10
20
 20
-550
 10
20
 20
-570
  0
LWPOLYLINE
  5
113
100
AcDbEntity
  8
Coupe
  6
ByLayer
 62
  256
370
   -1
100
AcDbPolyline
 90
    4
 70
    1
 43
0
 10
535
 20
-485
 10
535
 20
-495
 10
525
 20
-495
 10
525
 20
-485
  0
LWPOLYLINE
  5
114
100
AcDbEntity
  8
Coupe
  6
ByLayer
 62
  256
370
   -1
100
AcDbPolyline
 90
    4
 70
    1
 43
0
 10
553.1570974200887
 20
-482.5365731779472
 10
554.8935791967581
 20
-492.3846507080693
 10
545.0455016666359
 20
-494.1211324847386
 10
543.3090198899666
 20
-484.2730549546165
  0
LWPOLYLINE
  5
115
100
AcDbEntity
  8
Coupe
  6
ByLayer
 62
  256
370
   -1
100
AcDbPolyline
 90
    4
 70
    1
 43
0
 10
570.6105781531247
 20
-476.957624465892
 10
574.0307795863814
 20
-486.3545506737511
 10
564.6338533785224
 20
-489.7747521070078
 10
561.2136519452657
 20
-480.3778258991487
  0
LWPOLYLINE
  5
116
100
AcDbEntity
  8
Coupe
  6
ByLayer
 62
  256
370
   -1
100
AcDbPolyline
 90
    4
 70
    1
 43
0
 10
586.8301270189222
 20
-468.4326673973661
 10
591.8301270189222
 20
-477.0929214352104
 10
583.1698729810778
 20
-482.0929214352104
 10
578.1698729810778
 20
-473.4326673973661
  0
LWPOLYLINE
  5
117
100
AcDbEntity
  8
Coupe
  6
ByLayer
 62
  256
370
   -1
100
AcDbPolyline
 90
    4
 70
    1
 43
0
 10
450
 20
-360
 10
470
 20
-360
 10
470
 20
-350
 10
450
 20
-350
  0
LWPOLYLINE
  5
118
100
AcDbEntity
  8
Coupe
  6
ByLayer
 62
  256
370
   -1
100
AcDbPolyline
 90
    4
 70
    1
 43
0
 10
400
 20
-360
 10
420
 20
-360
 10
420
 20
-350
 10
400
 20
-350
  0
LWPOLYLINE
  5
119
100
AcDbEntity
  8
Coupe
  6
ByLayer
 62
  256
370
   -1
100
AcDbPolyline
 90
    4
 70
    1
 43
0
 10
350
 20
-350
 10
370
 20
-350
 10
370
 20
-360
 10
350
 20
-360
  0
LWPOLYLINE
  5
11A
100
AcDbEntity
  8
Coupe
  6
ByLayer
 62
  256
370
   -1
100
AcDbPolyline
 90
    4
 70
    1
 43
0
 10
300
 20
-350
 10
320
 20
-350
 10
320
 20
-360
 10
300
 20
-360
  0
LWPOLYLINE
  5
11B
100
AcDbEntity
  8
Coupe
  6
ByLayer
 62
  256
370
   -1
100
AcDbPolyline
 90
    4
 70
    1
 43
0
 10
210
 20
-350
 10
230
 20
-350
 10
230
 20
-360
 10
210
 20
-360
  0
LWPOLYLINE
  5
11C
100
AcDbEntity
  8
Coupe
  6
ByLayer
 62
  256
370
   -1
100
AcDbPolyline
 90
    4
 70
    1
 43
0
 10
160
 20
-350
 10
180
 20
-350
 10
180
 20
-360
 10
160
 20
-360
  0
LWPOLYLINE
  5
11D
100
AcDbEntity
  8
Coupe
  6
ByLayer
 62
  256
370
   -1
100
AcDbPolyline
 90
    4
 70
    1
 43
0
 10
110
 20
-350
 10
130
 20
-350
 10
130
 20
-360
 10
110
 20
-360
  0
LWPOLYLINE
  5
11E
100
AcDbEntity
  8
Coupe
  6
ByLayer
 62
  256
370
   -1
100
AcDbPolyline
 90
    4
 70
    1
 43
0
 10
60
 20
-350
 10
80
 20
-350
 10
80
 20
-360
 10
60
 20
-360
  0
ENDSEC
  0
SECTION
  2
OBJECTS
  0
DICTIONARY
  5
C
330
0
100
AcDbDictionary
281
    1
  3
ACAD_GROUP
350
D
  0
DICTIONARY
  5
D
330
C
100
AcDbDictionary
281
    1
  0
ENDSEC
  0
EOF
